PathFileType	4	(X/Y/Z)	C:\Users\°ÂÌØÂü\Desktop\20210112\bx_n_10_1801-Unnamed.trc
DataRate	CameraRate	NumFrames	NumMarkers	Units	OrigDataRate	OrigDataStartFrame	OrigNumFrames
50.00	50.00	       10	0	mm	50.00	352	       563
Frame#	Time	
		

352	7.020	-500.11264	14.49276	459.06644	-810.02881	306.31509	578.98486	-1018.73230	103.55800	667.23633	-718.55634	223.56786	656.79858	-557.44220	-40.77280	539.30249	-468.77383	-59.60035	895.02777	-805.12939	238.41356	665.33380	-664.80389	56.25985	149.94638	-525.77893	78.27206	530.14825	-695.92798	81.73940	206.75298	-601.45361	290.21637	452.28384	-674.68207	309.57935	562.23450	-692.88037	150.60718	207.89243	-647.74329	-65.06702	164.83986	-543.31262	-36.45931	507.48132	-753.45551	223.95192	208.74644	-610.48358	-77.09495	157.39977	-882.52698	296.03412	144.76205	-500.34494	182.18915	524.51996	-592.28674	24.71749	164.81070	-547.47192	-35.51444	163.45126	-671.05176	173.92578	152.68900	-588.84418	220.07814	172.37097	-660.79822	297.74384	159.19357	-624.47015	306.20737	158.99860	-552.65778	258.74326	162.86346	-527.99902	304.12732	146.59570	-284.10477	111.05193	1117.25391	-475.90121	269.62289	890.76801	-517.79425	-72.47531	142.79208	-785.63464	168.42709	192.62631				-782.21411	54.84331	180.07268	-489.26337	243.07979	464.59561	-615.24286	-40.25359	453.36523	-741.31299	-6.14855	213.33662	-875.91113	-78.31358	140.79131	-801.80615	-77.19256	601.19171													-693.78320	-66.17422	572.82166	
353	7.040	-499.73425	15.28801	458.26740	-809.29266	306.00504	579.47455	-1017.03064	104.55371	668.12451	-716.87555	222.03909	656.20721				-466.51382	-58.83117	892.89185	-803.83911	238.66183	666.19647	-664.80389	56.25985	149.94638	-525.54669	79.11594	529.48987	-696.22418	81.76649	206.45648	-600.41187	289.12585	452.07849	-673.86084	308.26486	561.90460	-692.64844	150.75130	207.36516	-647.79114	-64.90692	164.84930	-542.59076	-35.50999	507.45795	-753.49597	223.66399	209.19138	-610.59723	-76.98947	157.24628	-882.57037	296.17642	144.82063	-500.06235	180.95482	523.85101	-592.08679	24.82276	164.87927	-547.47192	-35.51444	163.45126	-671.11884	173.91527	152.73035	-588.49243	219.78218	172.49997	-660.63354	297.58618	159.27928	-624.51587	306.03549	159.19205	-552.70203	258.46857	162.85947	-528.08600	304.15735	146.47820	-281.01776	110.78257	1115.22534	-473.54633	269.53650	888.31482	-517.74695	-72.56529	142.69061	-785.79889	168.36205	192.73250				-782.25238	54.72092	180.21297	-488.59540	241.47636	464.03552	-615.24664	-40.05056	454.24210	-740.88934	-6.37200	213.49998	-875.93726	-78.33743	140.76480	-801.11249	-76.83549	601.38086													-692.78064	-65.71341	573.32611	
354	7.060	-499.44006	16.06164	458.06796	-808.18170	305.94458	580.08057	-1016.48438	103.89785	669.39899	-716.44006	222.36797	657.28894				-464.01044	-59.63938	891.49835	-802.48639	237.98929	666.21405	-665.17200	56.22403	149.61748	-524.12164	80.87711	529.67059	-696.21637	81.94187	206.31830	-599.95465	287.77554	451.65088	-672.82019	307.72330	562.50421	-692.80457	150.31253	207.63809	-647.66241	-64.98193	164.89687	-542.18500	-34.96523	507.09125	-753.40643	223.26485	209.07690	-610.57855	-77.10915	157.47310	-882.44086	296.16650	144.75983	-499.04034	179.80191	523.67596	-592.07898	24.74807	164.81541	-547.64789	-35.54808	163.60498	-671.16168	173.85635	152.37819	-588.58728	219.74283	172.44353	-660.71216	297.71909	159.30309	-624.58105	305.83734	159.51047	-552.79926	258.42862	162.79269	-527.99902	304.12732	146.59570	-277.93008	110.56737	1112.61511	-470.48596	269.39185	886.19312	-517.76477	-72.54214	143.08687	-785.68231	168.34920	192.63458				-782.49365	54.72874	180.57112	-488.50931	240.81909	463.06915	-614.35187	-38.99689	454.26752	-740.52783	-6.63045	213.85303	-876.03082	-78.35010	140.91132	-800.15967	-76.75489	601.86676													-692.26727	-64.86600	573.31232	
355	7.080	-498.65024	16.91209	458.12048	-807.12799	305.27667	580.45367	-1013.64539	104.77199	670.91034	-714.93286	221.02576	656.76599				-461.63553	-60.10934	890.50250	-801.35034	238.25966	666.47766	-664.89319	56.56667	150.09763	-524.45667	80.82267	529.00580	-695.95898	81.98687	206.14142	-599.26923	287.14883	451.29099	-671.35455	306.86368	562.57635	-692.80457	150.31253	207.63809	-647.56879	-64.80489	164.82909	-541.76758	-34.86076	507.54160	-753.26141	223.08884	209.17299	-610.31659	-77.05432	157.45215	-882.63550	295.99701	144.72606	-498.59256	178.44319	523.18677	-591.37518	24.36915	164.43973	-547.61438	-35.64592	163.42209	-671.20782	173.84113	152.29684	-588.42639	219.73978	172.41240	-660.41254	297.46695	159.44710	-624.54474	305.49893	159.52783	-552.82001	258.44980	162.94156	-528.01434	304.31531	146.82832	-274.23645	110.53325	1110.30090	-467.77386	268.76392	883.80670	-517.81696	-72.86765	142.88901	-785.67371	168.28232	192.48412				-782.25238	54.72092	180.21297	-487.72327	239.54320	462.93359	-613.67224	-38.35822	453.70956	-740.03455	-6.97601	214.15424	-875.85034	-78.68372	141.27127	-798.80176	-76.13159	602.40704													-690.98157	-64.70061	573.57312	
356	7.100	-498.03223	16.92093	457.22467	-806.19543	304.76328	580.68781	-1013.11334	103.88775	672.36725	-714.07959	220.90361	657.70496				-458.75879	-60.05330	888.60266	-800.04053	237.83015	667.38007	-665.12000	56.53284	149.53510	-523.70441	80.85880	528.42749	-695.59058	82.60094	205.90984	-598.38513	285.79559	451.65417	-670.42706	306.15970	562.72583	-692.80414	150.20631	207.58669	-647.60742	-64.95128	165.03926	-540.61951	-34.51801	507.01373	-753.05487	222.79829	209.43163	-610.16919	-76.81843	157.35698	-882.57037	296.17642	144.82063	-497.88959	177.40503	522.58905	-591.67694	24.58739	164.26678	-547.61682	-35.63238	163.57185	-671.60889	174.32581	151.90771	-588.41974	219.46918	172.27551	-660.27765	297.33905	159.88724	-624.54706	305.45074	159.67877	-552.95837	258.21561	163.03688	-528.02759	304.34650	146.51938	-270.54813	110.42238	1107.78198	-464.85513	269.06445	882.75562	-517.75531	-72.70916	142.88919	-785.60535	168.29031	192.52809				-782.33270	54.90084	180.52193	-487.12006	238.38309	462.75552	-613.34247	-38.53920	453.66379	-739.75879	-7.28839	214.52501	-875.99792	-78.69180	141.55168	-798.06989	-76.51723	602.99359													-690.29602	-64.77029	573.85175	
357	7.120	-497.10049	17.21712	457.02921	-804.63239	304.54822	581.73810	-1011.63129	104.19231	673.78815	-712.60626	219.59770	657.67761				-456.21564	-60.71915	886.81824	-798.41846	237.40663	667.94061	-665.12439	56.78064	149.84053	-522.96240	81.00736	528.37604	-695.46735	83.05448	206.65552	-597.70807	285.03552	452.08405	-669.79126	304.81839	562.69293	-692.71936	150.20892	207.59605	-647.59369	-64.76241	165.02412	-539.50391	-33.85445	506.18954	-753.02698	222.30626	209.58444	-610.23096	-76.91895	157.41177	-882.55109	296.05057	144.74612	-497.43945	175.62653	522.05103	-591.90906	24.83485	164.53824	-547.48529	-35.51220	163.20554	-671.20782	173.84113	152.29684	-588.41974	219.46918	172.27551	-660.02826	297.06412	159.97496	-624.53424	305.34509	159.70352	-552.76501	258.32700	162.94615	-527.91608	304.27734	146.74899	-266.85034	110.42989	1105.04700	-461.75504	268.59354	881.05847	-517.75531	-72.70916	142.88919	-785.74390	167.81801	192.65060				-782.62067	54.99536	180.79225	-486.74844	236.86446	461.83737	-613.07520	-38.60638	453.87741	-739.30798	-7.37894	214.73340	-875.95648	-78.79716	141.44162	-797.07642	-76.72768	603.90002													-689.40887	-64.65343	574.39795	
358	7.140	-497.16684	17.34009	456.89688	-803.93219	303.60458	581.99554	-1010.59875	104.03246	675.71112	-712.01776	218.97755	658.39801				-454.14996	-60.52166	884.76294	-797.40424	237.09946	668.58905	-664.67737	56.52898	150.03766	-522.13483	81.66660	527.77795	-695.26727	82.45229	205.78148	-596.88434	283.84161	451.71970	-667.99347	304.27817	563.31689	-692.79523	149.50638	207.32440	-647.58655	-64.76481	165.06076	-539.21417	-33.55811	506.16803	-752.98590	222.30409	209.72133	-610.11658	-76.96622	157.68584	-882.65814	296.18811	144.77901	-496.90427	173.90349	521.84033	-592.05408	25.07556	164.61357	-547.31775	-35.78616	163.31432	-671.29553	173.98064	152.01245	-588.43317	219.30371	172.07672	-660.14630	296.92053	160.17474	-624.42242	305.21756	159.85318	-552.87909	258.13702	162.99431	-527.99078	304.21622	146.57008	-263.21417	110.54603	1102.19763	-458.40799	268.27673	879.92889	-517.75574	-72.60028	142.65031	-785.84528	167.71825	192.64984				-782.28241	55.08712	180.92477	-485.54453	235.71153	462.27219	-611.80835	-37.62492	453.21811	-740.55945	-5.44174	213.10527	-875.87097	-78.64214	141.18979	-795.92834	-76.80650	604.71661													-688.19238	-64.73297	574.88965	
359	7.160	-496.84534	17.73660	456.47626	-802.68109	302.99850	582.68665	-1008.98602	103.90846	677.07959	-710.44037	218.08392	658.58746	-549.74585	-34.16518	536.31250	-451.82285	-60.75867	883.24298	-795.95288	236.66826	669.49615	-664.91815	56.69785	149.84070	-521.88763	81.97996	527.74628	-694.96167	82.51527	206.12912	-596.23212	282.87021	451.70255	-666.85321	303.05930	563.77350	-692.40228	149.62831	206.94934	-647.33441	-64.74995	165.12109	-538.36145	-33.16577	506.11795	-752.94702	221.98251	209.67612	-610.05829	-76.83355	157.39195	-882.63531	296.04214	144.80943	-496.24252	172.70772	521.11792	-591.83002	24.98349	164.55264	-547.31775	-35.78616	163.31432	-671.58612	173.79852	151.56371	-588.35187	219.17163	172.05453	-660.23895	296.80261	160.53510	-624.43665	305.09778	159.91010	-552.89215	258.11743	163.18018	-527.99078	304.21622	146.57008	-258.86176	110.39758	1099.63232	-455.44638	267.77115	878.16089	-517.76410	-72.74416	142.84889	-785.81567	167.71461	192.60863				-782.23529	55.18975	181.04614	-484.57465	234.02165	461.70178	-611.17169	-37.90937	453.50220	-739.95435	-5.47523	213.51283	-875.87335	-78.57735	141.34627	-794.94788	-77.26084	605.68042													-687.37921	-64.50076	575.04883	
360	7.180	-496.04483	18.11046	455.97238	-801.62048	302.63852	583.95007	-1008.03931	103.39632	678.95880	-709.98071	217.41805	659.34119	-550.01685	-34.54279	537.22858				-794.85284	236.04199	670.30426	-664.74323	56.62008	149.85019	-521.16498	82.34532	527.88049	-694.98022	82.64297	205.98874	-595.33484	281.29141	451.56308	-665.97406	302.10245	563.86462	-692.40228	149.62831	206.94934	-647.32037	-64.80241	165.24811	-538.15674	-33.10091	506.33466	-752.83960	221.87109	209.77869	-610.01666	-76.82488	157.63264	-882.54260	295.98880	144.67081	-495.71332	170.79402	520.76996	-591.94824	24.94876	164.31238	-547.07068	-35.95110	163.15012	-671.58612	173.79852	151.56371	-588.30908	219.10574	171.82062	-659.94452	296.74762	160.60954	-624.26709	304.86826	159.96547	-552.94855	258.11340	163.08131	-527.99078	304.21622	146.57008	-254.97003	109.81925	1096.59814	-454.20441	267.18341	875.77130	-517.69421	-72.84995	143.05922	-785.84369	167.40532	192.74628				-782.12061	55.16373	181.26921	-484.43152	232.87439	461.29138	-610.80566	-37.66510	453.36612	-740.13196	-5.29366	213.83318	-875.97003	-78.68922	141.20143	-793.88330	-77.01178	606.10388													-686.71906	-64.66549	575.58344	
361	7.200	-494.92450	18.61959	456.00726	-800.73090	302.18652	584.74829	-1006.69598	103.24432	680.47839	-708.50745	215.80971	659.30042	-549.48138	-34.39193	537.00854	-448.03317	-61.67256	880.60468	-793.11969	235.81023	671.10632	-664.94501	56.45508	149.54459	-520.72949	82.69147	527.61859	-694.78625	82.57144	205.91751	-594.81274	280.57779	452.11633	-665.05511	300.14059	564.15485	-692.52002	149.61507	206.82668	-647.31812	-64.55273	165.18686	-537.55286	-32.48729	505.95572	-752.60083	221.73578	209.77969	-609.53906	-77.08125	157.75496	-882.66772	296.15317	144.77940	-495.30942	169.18933	520.80194	-591.51233	24.92836	164.39412	-546.83795	-36.04399	163.46378	-671.58612	173.79852	151.56371	-588.29047	219.20241	171.91643	-659.58362	296.71075	160.86258	-624.13666	304.82227	160.20885	-553.01941	258.05438	163.05884	-528.03583	304.25760	146.54501	-251.24123	109.30177	1094.07410	-452.09946	267.62354	875.48914	-517.80823	-72.55949	142.70416	-785.77539	167.43001	192.79480				-781.78717	55.40944	181.62840	-483.38391	230.66954	461.47787	-610.58057	-37.44994	453.40668	-739.91095	-5.43366	214.02213	-876.00275	-78.74174	141.50209	-792.90802	-76.79694	607.00696													-685.58795	-64.70956	575.98663	
